<svg width="162" height="131" viewBox="0 0 162 131" fill="none" xmlns="http://www.w3.org/2000/svg">
<path d="M0 27.2205H32.9887V51.1863H5.93797C2.65856 51.1863 0 48.8019 0 45.8606V27.2205ZM32.9887 0V23.67H0V17.4566C0 7.81553 8.71397 0 19.4633 0H32.9887ZM70.5959 0C75.5151 0 79.5028 3.57653 79.5028 7.98862V23.67H36.6175V0H70.5959Z" fill="#4F646F"/>
<path d="M0 82.5491H40.2462V106.515H12.8656C5.76016 106.515 0 101.349 0 94.9758V82.5491ZM79.5028 91.4253C79.5028 99.7592 71.9705 106.515 62.6786 106.515H44.5348V82.5491H79.5028V91.4253ZM71.9154 54.441C76.106 54.441 79.5028 57.4876 79.5028 61.2461V78.9986H44.5348V54.441H71.9154Z" fill="#002642"/>
<path d="M161.645 67.1636C161.645 73.5364 155.885 78.7027 148.779 78.7027H124.368V54.4409H161.645V67.1636ZM120.409 27.2205V50.5946H84.1213V31.6586C84.1213 29.2076 86.3368 27.2205 89.0696 27.2205H120.409ZM142.841 27.2205C153.226 27.2205 161.645 34.7712 161.645 44.0853V50.5946H124.697V27.2205H142.841Z" fill="#002642"/>
<path d="M112.821 54.441H88.4098C85.8591 54.441 83.7914 56.2955 83.7914 58.5832V74.5605C83.7914 76.8482 85.8591 78.7027 88.4098 78.7027H112.821C115.372 78.7027 117.44 76.8482 117.44 74.5605V58.5832C117.44 56.2955 115.372 54.441 112.821 54.441Z" fill="#D7ADCF"/>
<path d="M118.1 124.563C118.1 127.832 115.146 130.481 111.502 130.481H90.3891C86.7452 130.481 83.7914 127.832 83.7914 124.563V110.657H118.1V124.563ZM118.1 106.515H83.7914V82.5491H118.1V106.515Z" fill="#4F646F"/>
</svg>
