<svg width="1064" height="703" viewBox="0 0 1064 703" fill="none" xmlns="http://www.w3.org/2000/svg">
<rect width="1064" height="703" fill="#D8D7D8"/>
<path d="M287 223H387V304H305C295.059 304 287 295.941 287 286V223ZM387 131V211H287V190C287 157.415 313.415 131 346 131H387ZM501 131C515.912 131 528 143.088 528 158V211H398V131H501Z" fill="#4F646F"/>
<path d="M287 410H409V491H326C304.461 491 287 473.539 287 452V410ZM528 440C528 468.167 505.167 491 477 491H422V410H528V440ZM505 315C517.703 315 528 325.297 528 338V398H422V315H505Z" fill="#002642"/>
<path d="M777 358C777 379.539 759.539 397 738 397H664V315H777V358ZM652 223V302H542V238C542 229.716 548.716 223 557 223H652ZM720 223C751.48 223 777 248.52 777 280V302H665V223H720Z" fill="#002642"/>
<rect x="541" y="315" width="102" height="82" rx="14" fill="#D7ADCF"/>
<path d="M645 552C645 563.046 636.046 572 625 572H561C549.954 572 541 563.046 541 552V505H645V552ZM645 491H541V410H645V491Z" fill="#4F646F"/>
</svg>
