<?xml version="1.0" standalone="no"?>
<!DOCTYPE svg PUBLIC "-//W3C//DTD SVG 20010904//EN"
 "http://www.w3.org/TR/2001/REC-SVG-20010904/DTD/svg10.dtd">
<svg version="1.0" xmlns="http://www.w3.org/2000/svg"
 width="16.000000pt" height="16.000000pt" viewBox="0 0 16.000000 16.000000"
 preserveAspectRatio="xMidYMid meet">

<g transform="translate(0.000000,16.000000) scale(0.100000,-0.100000)"
fill="#000000" stroke="none">
<path d="M23 114 c-3 -8 -1 -20 6 -27 14 -14 15 -37 1 -37 -5 0 -10 8 -10 17
0 13 -3 14 -11 6 -16 -16 -3 -43 20 -43 24 0 43 30 32 49 -5 7 -6 22 -4 32 7
24 -25 27 -34 3z m27 -4 c0 -5 -2 -10 -4 -10 -3 0 -8 5 -11 10 -3 6 -1 10 4
10 6 0 11 -4 11 -10z"/>
<path d="M119 123 c18 -4 22 -10 18 -29 -3 -16 0 -23 7 -21 6 2 11 15 11 28 0
20 -5 24 -30 26 -22 1 -24 0 -6 -4z"/>
<path d="M97 96 c-4 -10 -7 -30 -6 -44 1 -25 1 -25 10 6 11 37 7 67 -4 38z"/>
</g>
</svg>
